***************************************************************

[IMG]http://www.hotimg.org/images/67363952943939111394.png[/IMG]

***************************************************************

[IMG]http://www.hotimg.org/images/81445830513695401776.jpg[/IMG]

***************************************************************

FILM TITLE: The Woman Knight of Mirror Lake (2011)

***************************************************************

Genre:  Drama    

Release:   13 October 2011 (Hong Kong)

Director: Herman Yau

Writer: Erica Lee

Stars: Kevin Cheng, Pat Ha and Yi Huang

Country: Hong Kong

Language: Mandarin | Cantonese 

Plot:
When the women of her time had their feet bound to please men, 
Qiu Jin (Crystal Huang) was already questioning the sexual inequality 
of feudal traditions. Free-spirited and well-educated, she grew up 
practicing martial arts and was as well versed in poetry as she was 
in sword-fighting. When this rebellious girl moved to Beijing with 
her husband (Kevin Cheng), she witnessed how her country was raided 
and ravaged by foreign powers.

IMDB Rating: 6.1/10 from 82 users  
 
http://www.imdb.com/title/tt1993428/

****************************************************************

[URL=http://www.hotimg.org/viewer.php?file=77060461001727909539.png][IMG]http://www.hotimg.org/images/77060461001727909539_thumb.png[/IMG][/URL]
[URL=http://www.hotimg.org/viewer.php?file=52273203579545980737.png][IMG]http://www.hotimg.org/images/52273203579545980737_thumb.png[/IMG][/URL]
[URL=http://www.hotimg.org/viewer.php?file=14887076468182710889.png][IMG]http://www.hotimg.org/images/14887076468182710889_thumb.png[/IMG][/URL]
[URL=http://www.hotimg.org/viewer.php?file=66467187166106957061.png][IMG]http://www.hotimg.org/images/66467187166106957061_thumb.png[/IMG][/URL]
[URL=http://www.hotimg.org/viewer.php?file=10182835352428238871.png][IMG]http://www.hotimg.org/images/10182835352428238871_thumb.png[/IMG][/URL]

****************************************************************

General
Complete name                    : The Woman Night Of Mirror Lake 2011 720p BDRip XviD ac3 (avi) [GREYSHADOW].avi
Format                           : AVI
Format/Info                      : Audio Video Interleave
Format profile                   : OpenDML
File size                        : 3.70 GiB
Duration                         : 1h 54mn
Overall bit rate                 : 4645 Kbps
Writing library                  : VirtualDub build 32842/release

Video
ID                               : 0
Format                           : MPEG-4 Visual
Format profile                   : Simple@L5
Format settings, BVOP            : No
Format settings, QPel            : No
Format settings, GMC             : No warppoints
Format settings, Matrix          : Default (H.263)
Codec ID                         : XVID
Codec ID/Hint                    : XviD
Duration                         : 1h 54mn
Bit rate                         : 3996 Kbps
Width                            : 1280 pixels
Height                           : 544 pixels
Display aspect ratio             : 2.35:1
Frame rate                       : 24.000 fps
Color space                      : YUV
Chroma subsampling               : 4:2:0
Bit depth                        : 8 bits
Scan type                        : Progressive
Compression mode                 : Lossy
Bits/(Pixel*Frame)               : 0.239
Stream size                      : 3.18 GiB (86%)
Writing library                  : XviD 64

Audio
ID                               : 1
Format                           : AC-3
Format/Info                      : Audio Coding 3
Mode extension                   : CM (complete main)
Codec ID                         : 2000
Duration                         : 1h 54mn
Bit rate mode                    : Constant
Bit rate                         : 640 Kbps
Channel(s)                       : 6 channels
Channel positions                : Front: L C R, Side: L R, LFE
Sampling rate                    : 48.0 KHz
Bit depth                        : 16 bits
Compression mode                 : Lossy
Stream size                      : 522 MiB (14%)
Alignment                        : Aligned on interleaves
Interleave, duration             : 42 ms (1.00 video frame)
Interleave, preload duration     : 512 ms

****************************************************************

Video Source: The Woman Knight Of Mirror Lake 2011 BluRay 1080p AVC DTS-HD MA-HDChina (21.4GB)

Thanks: chdbits.org

****************************************************************

I provide a small sample, so please download this to check your 
compatibility first if you are unsure.

****************************************************************